# xmcd
#
# Track frame offsets:
#   150
#   17180
#   34037
#   47255
#   60422
#   76287
#   94067
#   112530
#   132462
#   147092
#   163802
#   176359
#
# Disc length: 2503 seconds
#
# Revision: 0
# Processed by: cddbd v1.5.1PL0 Copyright (c) Steve Scherf et al.
# Submitted via: uFREEDB ActiveX Control 1.5
#
DISCID=8b09c50c
DTITLE=Durvall and D'Nelson - Durvall and D'Nelson
DYEAR=1998
DGENRE=Country
TTITLE0=A força da Paixão
TTITLE1=Quando a Saudade Apertar
TTITLE2=Me Usa e Abusa
TTITLE3=Olhando no Espelho
TTITLE4=Vida de Vaqueiro
TTITLE5=Herói do Progresso
TTITLE6=Deixa Acontecer
TTITLE7=Estou Ligado em Você
TTITLE8=Nana
TTITLE9=Amanhecer no Sertão
TTITLE10=Criança Esperança
TTITLE11=Homenagem ao Rei do Pagode
EXTD=
EXTT0=
EXTT1=
EXTT2=
EXTT3=
EXTT4=
EXTT5=
EXTT6=
EXTT7=
EXTT8=
EXTT9=
EXTT10=
EXTT11=
PLAYORDER=
